<svg version="1.0" xmlns="http://www.w3.org/2000/svg"
 width="958.000000pt" height="1092.000000pt" viewBox="0 0 958.000000 1092.000000"
 preserveAspectRatio="xMidYMid meet">

<g transform="translate(0.000000,1092.000000) scale(0.100000,-0.100000)"
fill="#000000" stroke="none">
<path d="M0 5460 l0 -5460 4790 0 4790 0 0 5460 0 5460 -270 0 c-148 0 -270
-1 -270 -3 0 -1 40 -123 89 -269 l89 -268 -177 -447 c-98 -247 -189 -477 -202
-512 l-24 -64 -614 -228 c-338 -126 -616 -227 -618 -226 -1 2 129 365 291 808
162 442 299 823 306 845 l13 42 416 157 c229 87 418 159 420 161 2 2 -2028 4
-4512 4 l-4517 0 0 -5460z m6738 3854 l-381 -870 -570 -212 c-314 -117 -571
-211 -573 -209 -2 2 752 1727 758 1732 7 5 1143 433 1145 431 1 -1 -169 -394
-379 -872z m-1962 -156 c-191 -396 -767 -1583 -771 -1586 -6 -6 -1078 -403
-1081 -400 -1 2 161 386 362 853 l364 850 598 227 c328 125 600 227 604 227 4
1 -31 -77 -76 -171z m-2306 -744 c0 -9 -712 -1668 -719 -1677 -9 -9 -1112
-420 -1116 -415 -3 4 688 1645 701 1665 8 12 1094 431 1122 432 6 1 12 -2 12
-5z m6800 -3833 c7 -13 10 -621 10 -1895 0 -1691 -2 -1876 -16 -1890 -14 -15
-412 -16 -4237 -16 -2643 0 -4228 4 -4237 10 -13 8 -15 231 -18 1890 -1 1291
1 1887 8 1901 11 19 58 19 4245 19 4176 0 4234 0 4245 -19z"/>
<path d="M858 3935 l2 -585 2075 0 2075 0 0 585 0 585 -2077 0 -2078 0 3 -585z"/>
<path d="M5090 3935 l0 -585 2053 2 2052 3 3 583 2 582 -2055 0 -2055 0 0
-585z"/>
<path d="M858 2065 l2 -1205 4170 0 4170 0 0 1205 0 1205 -4172 0 -4173 0 3
-1205z"/>
</g>
</svg>
